<?xml version="1.0" encoding="UTF-8" standalone="no"?>
<!-- Created with Inkscape (http://www.inkscape.org/) -->

<svg
   width="25px"
   viewBox="0 0 101.59999 135.11609"
   version="1.1"
   id="svg5"
   xml:space="preserve"
   inkscape:version="1.2.1 (9c6d41e410, 2022-07-14)"
   sodipodi:docname="alecture.svg"
   xmlns:inkscape="http://www.inkscape.org/namespaces/inkscape"
   xmlns:sodipodi="http://sodipodi.sourceforge.net/DTD/sodipodi-0.dtd"
   xmlns="http://www.w3.org/2000/svg"
   xmlns:svg="http://www.w3.org/2000/svg"><sodipodi:namedview
     id="namedview7"
     pagecolor="#ffffff"
     bordercolor="#000000"
     borderopacity="0.25"
     inkscape:showpageshadow="2"
     inkscape:pageopacity="0.0"
     inkscape:pagecheckerboard="0"
     inkscape:deskcolor="#d1d1d1"
     inkscape:document-units="mm"
     showgrid="false"
     inkscape:zoom="16.871996"
     inkscape:cx="8.5348525"
     inkscape:cy="72.783325"
     inkscape:window-width="1920"
     inkscape:window-height="1017"
     inkscape:window-x="-8"
     inkscape:window-y="-8"
     inkscape:window-maximized="1"
     inkscape:current-layer="layer1" /><defs
     id="defs2" /><g
     inkscape:label="Layer 1"
     inkscape:groupmode="layer"
     id="layer1"
     transform="translate(-54.278366,-78.818146)"><path
       d="m 155.87836,129.61814 c 0,23.12458 -30.95625,64.29375 -44.52937,81.28 -3.25438,4.04812 -9.28688,4.04812 -12.541247,0 -13.573127,-16.98625 -44.529377,-58.15542 -44.529377,-81.28 0,-28.04583 22.754167,-50.799994 50.799994,-50.799994 28.04584,0 50.8,22.754164 50.8,50.799994 z"
       id="path132"
       style="stroke-width:0.264583;fill:#ff2a2a" /><path
       d="m 105.28337,99.733406 c -0.84743,0 -1.68439,0.14647 -2.47951,0.428954 l -29.346035,10.59805 c -0.993895,0.36618 -1.653002,1.30776 -1.653002,2.36442 0,1.05667 0.659107,1.99825 1.653002,2.36442 l 6.057525,2.18657 c -1.715775,2.6992 -2.688746,5.89013 -2.688746,9.24846 v 2.93983 c 0,2.97122 -1.129901,6.0366 -2.333036,8.45333 -0.680033,1.36007 -1.454225,2.69922 -2.35396,3.93373 -0.334785,0.44987 -0.428944,1.03575 -0.240628,1.56931 0.188317,0.53357 0.627723,0.93112 1.171749,1.06714 l 6.695711,1.67391 c 0.439405,0.11509 0.910197,0.0314 1.297293,-0.20924 0.387096,-0.24062 0.659109,-0.63818 0.742805,-1.08804 0.899735,-4.47776 0.449868,-8.4952 -0.219703,-11.37226 -0.334785,-1.4856 -0.784653,-3.00259 -1.412377,-4.39405 v -2.57366 c 0,-3.15955 1.06713,-6.14123 2.918912,-8.52658 1.349604,-1.62161 3.096766,-2.92937 5.147327,-3.73494 l 16.425403,-6.45508 c 0.85789,-0.3348 1.83086,0.0838 2.16565,0.94158 0.33478,0.85788 -0.0838,1.83085 -0.94158,2.16564 l -16.425414,6.45508 c -1.297294,0.51264 -2.437657,1.29729 -3.368779,2.2598 l 16.697423,6.02614 c 0.79511,0.28248 1.63207,0.42895 2.4795,0.42895 0.84742,0 1.68439,-0.14647 2.4795,-0.42895 l 29.35651,-10.56667 c 0.9939,-0.35571 1.653,-1.30775 1.653,-2.36442 0,-1.05666 -0.6591,-1.99824 -1.653,-2.36442 l -29.34605,-10.59805 c -0.79512,-0.282484 -1.63207,-0.428954 -2.47949,-0.428954 z M 85.196242,139.07071 c 0,3.6931 8.99736,7.53268 20.087128,7.53268 11.08977,0 20.08712,-3.83958 20.08712,-7.53268 l -1.6007,-15.21182 -14.87702,5.3775 c -1.16129,0.41849 -2.38535,0.62772 -3.6094,0.62772 -1.22406,0 -2.45858,-0.20923 -3.60941,-0.62772 l -14.877025,-5.3775 z"
       id="path586"
       style="fill:#ffffff;stroke-width:0.10462" /></g></svg>
