<?xml version="1.0" encoding="UTF-8" standalone="no"?>
<!-- Created with Inkscape (http://www.inkscape.org/) -->

<svg
   width="25px"
   viewBox="0 0 101.59999 135.11609"
   version="1.1"
   id="svg5"
   xml:space="preserve"
   inkscape:version="1.2.1 (9c6d41e410, 2022-07-14)"
   sodipodi:docname="aresidence.svg"
   xmlns:inkscape="http://www.inkscape.org/namespaces/inkscape"
   xmlns:sodipodi="http://sodipodi.sourceforge.net/DTD/sodipodi-0.dtd"
   xmlns="http://www.w3.org/2000/svg"
   xmlns:svg="http://www.w3.org/2000/svg"><sodipodi:namedview
     id="namedview7"
     pagecolor="#ffffff"
     bordercolor="#000000"
     borderopacity="0.25"
     inkscape:showpageshadow="2"
     inkscape:pageopacity="0.0"
     inkscape:pagecheckerboard="0"
     inkscape:deskcolor="#d1d1d1"
     inkscape:document-units="mm"
     showgrid="false"
     inkscape:zoom="2.9825758"
     inkscape:cx="6.3703327"
     inkscape:cy="97.566675"
     inkscape:window-width="1920"
     inkscape:window-height="1017"
     inkscape:window-x="-8"
     inkscape:window-y="-8"
     inkscape:window-maximized="1"
     inkscape:current-layer="layer1" /><defs
     id="defs2" /><g
     inkscape:label="Layer 1"
     inkscape:groupmode="layer"
     id="layer1"
     transform="translate(-54.278366,-78.818146)"><path
       d="m 155.87836,129.61814 c 0,23.12458 -30.95625,64.29375 -44.52937,81.28 -3.25438,4.04812 -9.28688,4.04812 -12.541247,0 -13.573127,-16.98625 -44.529377,-58.15542 -44.529377,-81.28 0,-28.04583 22.754167,-50.799994 50.799994,-50.799994 28.04584,0 50.8,22.754164 50.8,50.799994 z"
       id="path132"
       style="stroke-width:0.264583;fill:#ff2a2a" /><path
       d="m 133.23991,126.90448 c 1.82807,0 3.44108,-1.50548 3.44108,-3.45185 0.10753,-0.9678 -0.3226,-1.82807 -1.18287,-2.58081 l -5.67779,-5.00032 v -13.0116 c 0,-1.90335 -1.53773,-3.441084 -3.44108,-3.441084 h -3.44109 c -1.90334,0 -3.44108,1.537734 -3.44108,3.441084 v 3.94649 L 108.04471,96.730469 c -0.64519,-0.537668 -1.50547,-0.752738 -2.25819,-0.752738 -0.75275,0 -1.61302,0.107523 -2.36577,0.860271 L 75.838305,120.87182 c -0.75273,0.75274 -1.075334,1.61301 -1.075334,2.58081 0,1.93562 1.50547,3.45185 3.441084,3.45185 h 3.441084 v 7.49511 c -0.01079,0.0968 -0.01079,0.19356 -0.01079,0.30109 v 12.03306 c 0,2.37648 1.92486,4.30134 4.301354,4.30134 h 1.720542 c 0.12904,0 0.25809,-0.0108 0.387128,-0.0215 0.161294,0.0108 0.322595,0.0215 0.483898,0.0215 h 3.441083 2.58082 c 2.3765,0 4.30136,-1.92486 4.30136,-4.30134 v -2.58084 -6.88216 c 0,-1.90335 1.537726,-3.44109 3.441076,-3.44109 h 6.88219 c 1.90335,0 3.44109,1.53774 3.44109,3.44109 v 6.88216 2.58084 c 0,2.37648 1.92486,4.30134 4.30135,4.30134 h 2.58081 3.49485 c 0.15055,0 0.30109,0 0.45165,-0.0108 0.11829,0.0108 0.23657,0.0108 0.35486,0.0108 h 1.72053 c 2.37651,0 4.30136,-1.92486 4.30136,-4.30134 v -1.74206 c 0.0323,-0.27959 0.0537,-0.56993 0.0537,-0.87103 l -0.0753,-17.22692 h 3.44108 z"
       id="path299"
       style="fill:#ffffff;stroke-width:0.107534" /></g></svg>
