<?xml version="1.0" encoding="UTF-8" standalone="no"?>
<!-- Created with Inkscape (http://www.inkscape.org/) -->

<svg
   width="25px"
   viewBox="0 0 101.59999 135.11609"
   version="1.1"
   id="svg5"
   xml:space="preserve"
   inkscape:version="1.2.1 (9c6d41e410, 2022-07-14)"
   sodipodi:docname="dining.svg"
   xmlns:inkscape="http://www.inkscape.org/namespaces/inkscape"
   xmlns:sodipodi="http://sodipodi.sourceforge.net/DTD/sodipodi-0.dtd"
   xmlns="http://www.w3.org/2000/svg"
   xmlns:svg="http://www.w3.org/2000/svg"><sodipodi:namedview
     id="namedview7"
     pagecolor="#ffffff"
     bordercolor="#000000"
     borderopacity="0.25"
     inkscape:showpageshadow="2"
     inkscape:pageopacity="0.0"
     inkscape:pagecheckerboard="0"
     inkscape:deskcolor="#d1d1d1"
     inkscape:document-units="mm"
     showgrid="false"
     inkscape:zoom="0.74564394"
     inkscape:cx="-29.504699"
     inkscape:cy="182.39268"
     inkscape:window-width="1920"
     inkscape:window-height="1017"
     inkscape:window-x="-8"
     inkscape:window-y="-8"
     inkscape:window-maximized="1"
     inkscape:current-layer="layer1" /><defs
     id="defs2" /><g
     inkscape:label="Layer 1"
     inkscape:groupmode="layer"
     id="layer1"
     transform="translate(-54.278366,-78.818146)"><path
       d="m 155.87836,129.61814 c 0,23.12458 -30.95625,64.29375 -44.52937,81.28 -3.25438,4.04812 -9.28688,4.04812 -12.541247,0 -13.573127,-16.98625 -44.529377,-58.15542 -44.529377,-81.28 0,-28.04583 22.754167,-50.799994 50.799994,-50.799994 28.04584,0 50.8,22.754164 50.8,50.799994 z"
       id="path132"
       style="stroke-width:0.264583" /><path
       d="m 128.49771,98.729977 c -1.92687,0 -15.41504,3.853753 -15.41504,21.195683 v 13.48819 c 0,4.25117 3.45634,7.70752 7.70752,7.70752 h 3.85376 v 15.41505 c 0,2.13161 1.72216,3.85376 3.85376,3.85376 2.13163,0 3.85377,-1.72215 3.85377,-3.85376 v -15.41505 -13.48818 -25.04946 c 0,-2.13161 -1.72214,-3.853753 -3.85377,-3.853753 z m -42.391387,1.926883 c 0,-0.987533 -0.734624,-1.806462 -1.722151,-1.914838 -0.987527,-0.108396 -1.866666,0.541931 -2.083441,1.493328 l -3.649032,16.41461 c -0.168602,0.75872 -0.252903,1.52947 -0.252903,2.30022 0,5.52774 4.227097,10.06795 9.634409,10.56172 v 27.02452 c 0,2.13161 1.722151,3.85376 3.853763,3.85376 2.131613,0 3.853763,-1.72215 3.853763,-3.85376 V 129.5119 c 5.407319,-0.49377 9.634409,-5.03398 9.634409,-10.56172 0,-0.77075 -0.0844,-1.5415 -0.2529,-2.30022 l -3.64903,-16.41461 c -0.21677,-0.963442 -1.12001,-1.601724 -2.095488,-1.493328 -0.975485,0.108376 -1.710109,0.927305 -1.710109,1.914838 v 16.16171 c 0,0.65031 -0.529893,1.18022 -1.180215,1.18022 -0.614194,0 -1.12,-0.46968 -1.180215,-1.08387 l -1.505376,-16.42666 c -0.0843,-0.99958 -0.915269,-1.758283 -1.914839,-1.758283 -0.99957,0 -1.830538,0.758703 -1.914839,1.758283 l -1.493333,16.42666 c -0.06021,0.61419 -0.566021,1.08387 -1.180215,1.08387 -0.650323,0 -1.180216,-0.52991 -1.180216,-1.18022 v -16.16171 z m 5.816773,18.30537 h -0.03612 -0.03612 l 0.03612,-0.0844 z"
       id="path601"
       style="fill:#ffffff;stroke-width:0.12043" /></g></svg>
