<?xml version="1.0" encoding="UTF-8" standalone="no"?>
<!-- Created with Inkscape (http://www.inkscape.org/) -->

<svg
   width="25px"
   viewBox="0 0 101.59999 135.11609"
   version="1.1"
   id="svg5"
   xml:space="preserve"
   inkscape:version="1.2.1 (9c6d41e410, 2022-07-14)"
   sodipodi:docname="heart.svg"
   xmlns:inkscape="http://www.inkscape.org/namespaces/inkscape"
   xmlns:sodipodi="http://sodipodi.sourceforge.net/DTD/sodipodi-0.dtd"
   xmlns="http://www.w3.org/2000/svg"
   xmlns:svg="http://www.w3.org/2000/svg"><sodipodi:namedview
     id="namedview7"
     pagecolor="#ffffff"
     bordercolor="#000000"
     borderopacity="0.25"
     inkscape:showpageshadow="2"
     inkscape:pageopacity="0.0"
     inkscape:pagecheckerboard="0"
     inkscape:deskcolor="#d1d1d1"
     inkscape:document-units="mm"
     showgrid="false"
     inkscape:zoom="5.9651515"
     inkscape:cx="-29.504699"
     inkscape:cy="45.262891"
     inkscape:window-width="1920"
     inkscape:window-height="1017"
     inkscape:window-x="-8"
     inkscape:window-y="-8"
     inkscape:window-maximized="1"
     inkscape:current-layer="layer1" /><defs
     id="defs2" /><g
     inkscape:label="Layer 1"
     inkscape:groupmode="layer"
     id="layer1"
     transform="translate(-54.278366,-78.818146)"><path
       d="m 155.87836,129.61814 c 0,23.12458 -30.95625,64.29375 -44.52937,81.28 -3.25438,4.04812 -9.28688,4.04812 -12.541247,0 -13.573127,-16.98625 -44.529377,-58.15542 -44.529377,-81.28 0,-28.04583 22.754167,-50.799994 50.799994,-50.799994 28.04584,0 50.8,22.754164 50.8,50.799994 z"
       id="path132"
       style="stroke-width:0.264583" /><path
       d="m 78.773689,136.72992 23.362611,21.81113 c 0.96967,0.90503 2.24964,1.40926 3.58132,1.40926 1.33168,0 2.61165,-0.50423 3.58132,-1.40926 l 23.36261,-21.81113 c 3.9304,-3.65889 6.15418,-8.79169 6.15418,-14.1572 v -0.74988 c 0,-9.03734 -6.52912,-16.74299 -15.43717,-18.22982 -5.8956,-0.9826 -11.89463,0.94381 -16.10946,5.15865 l -1.55148,1.55147 -1.55147,-1.55147 c -4.214842,-4.21484 -10.213873,-6.14125 -16.109475,-5.15865 -8.908045,1.48683 -15.437165,9.19248 -15.437165,18.22982 v 0.74988 c 0,5.36551 2.223777,10.49831 6.154179,14.1572 z"
       id="path188"
       style="fill:#fd2d61;stroke-width:0.129289;fill-opacity:1" /></g></svg>
