<?xml version="1.0" encoding="UTF-8" standalone="no"?>
<!-- Created with Inkscape (http://www.inkscape.org/) -->

<svg
   width="25px"
   viewBox="0 0 101.59999 135.11609"
   version="1.1"
   id="svg5"
   xml:space="preserve"
   inkscape:version="1.2.1 (9c6d41e410, 2022-07-14)"
   sodipodi:docname="pos.svg"
   xmlns:inkscape="http://www.inkscape.org/namespaces/inkscape"
   xmlns:sodipodi="http://sodipodi.sourceforge.net/DTD/sodipodi-0.dtd"
   xmlns="http://www.w3.org/2000/svg"
   xmlns:svg="http://www.w3.org/2000/svg"><sodipodi:namedview
     id="namedview7"
     pagecolor="#ffffff"
     bordercolor="#000000"
     borderopacity="0.25"
     inkscape:showpageshadow="2"
     inkscape:pageopacity="0.0"
     inkscape:pagecheckerboard="0"
     inkscape:deskcolor="#d1d1d1"
     inkscape:document-units="mm"
     showgrid="false"
     inkscape:zoom="8.4359982"
     inkscape:cx="5.0972036"
     inkscape:cy="60.810824"
     inkscape:window-width="1920"
     inkscape:window-height="1017"
     inkscape:window-x="-8"
     inkscape:window-y="-8"
     inkscape:window-maximized="1"
     inkscape:current-layer="layer1" /><defs
     id="defs2" /><g
     inkscape:label="Layer 1"
     inkscape:groupmode="layer"
     id="layer1"
     transform="translate(-54.278366,-78.818146)"><path
       d="m 155.87836,129.61814 c 0,23.12458 -30.95625,64.29375 -44.52937,81.28 -3.25438,4.04812 -9.28688,4.04812 -12.541247,0 -13.573127,-16.98625 -44.529377,-58.15542 -44.529377,-81.28 0,-28.04583 22.754167,-50.799994 50.799994,-50.799994 28.04584,0 50.8,22.754164 50.8,50.799994 z"
       id="path132"
       style="stroke-width:0.264583" /><path
       d="m 112.25597,96.928379 c 0,4.125411 -3.34703,7.472421 -7.47244,7.472421 -4.1254,0 -7.472432,-3.34701 -7.472432,-7.472421 0,-4.125408 3.347032,-7.472438 7.472432,-7.472438 4.12541,0 7.47244,3.34703 7.47244,7.472438 z m -8.71784,47.325421 v 19.92649 c 0,2.75546 -2.22616,4.98161 -4.981625,4.98161 -2.755461,0 -4.981624,-2.22615 -4.981624,-4.98161 v -34.73128 l -4.452321,7.41018 c -1.41665,2.35072 -4.483464,3.11353 -6.834166,1.69685 -2.350703,-1.41661 -3.113516,-4.48342 -1.696867,-6.83414 l 9.075896,-15.10055 c 2.708753,-4.49902 7.565838,-7.25448 12.812107,-7.25448 h 4.62357 c 5.24627,0 10.10336,2.75546 12.81211,7.25448 l 9.07589,15.10055 c 1.41667,2.35072 0.65384,5.41753 -1.69687,6.83414 -2.35069,1.41668 -5.4175,0.65387 -6.83415,-1.69685 l -4.46789,-7.41018 v 34.73128 c 0,2.75546 -2.22617,4.98161 -4.98162,4.98161 -2.75547,0 -4.98163,-2.22615 -4.98163,-4.98161 V 144.2538 Z"
       id="path421"
       style="fill:#ffffff;stroke-width:0.155676" /></g></svg>
